<svg id="Layer_1" data-name="Layer 1" xmlns="http://www.w3.org/2000/svg" viewBox="0 0 240.95 175.1"><defs><style>.cls-1{font-size:41.54px;fill:#ffffff;font-family:Rockwell, Rockwell;}.cls-2{fill:none;stroke:#ffffff;stroke-miterlimit:10;stroke-width:3.24px;}</style></defs><title>dtl svg</title><polygon points="124.67 34.33 140.11 34.33 140.11 24.88 155.61 11.07 109.58 11.07 109.58 24.78 124.67 24.78 124.67 34.33"/><path d="M130,56.35v6.79q-11.9-12.68-27.76-12.67-15,0-26.94,11.18T63.32,92.25Q63.32,111.57,75,122a38.8,38.8,0,0,0,26.93,10.46q16.52,0,28.08-12.81V131.2H145.4V56.35Zm-7.69,55.08a25.15,25.15,0,0,1-35.13.38q-7.32-7-7.34-20a27.54,27.54,0,0,1,7.13-19.25,22.92,22.92,0,0,1,17.62-7.86,26.36,26.36,0,0,1,17.55,6.68q7.84,6.65,7.86,19.7C130,99.76,127.4,106.55,122.27,111.43Z" transform="translate(-5.29 -7.27)"/><polygon points="170.98 11.07 155.61 11.07 155.61 34.33 170.91 34.33 170.91 24.71 170.98 24.71 170.98 11.07"/><polygon points="170.91 110.22 170.91 49.08 155.61 49.08 155.61 123.93 182.92 123.93 182.92 110.22 170.91 110.22"/><text class="cls-1" transform="translate(8.64 162.2)">digiTibetlab</text><rect class="cls-2" x="1.62" y="1.62" width="237.71" height="171.86"/></svg>